Coordinates
version=1
nRows=14
nColumns=42
inDegrees=yes

Units are S.I. units (second, meters, Newtons, ...)
If the header above contains a line with 'inDegrees', this indicates whether rotational values are in degrees (yes) or radians (no).

endheader
time	pelvis_tilt	pelvis_list	pelvis_rotation	pelvis_tx	pelvis_ty	pelvis_tz	hip_flexion_r	hip_adduction_r	hip_rotation_r	knee_angle_r	knee_adduction_r	knee_angle_r_beta	ankle_angle_r	subtalar_angle_r	mtp_angle_r	hip_flexion_l	hip_adduction_l	hip_rotation_l	knee_angle_l	knee_adduction_l	knee_angle_l_beta	ankle_angle_l	subtalar_angle_l	mtp_angle_l	lumbar_extension	lumbar_bending	lumbar_rotation	arm_flex_r	arm_add_r	arm_rot_r	elbow_flex_r	pro_sup_r	wrist_flex_r	wrist_dev_r	arm_flex_l	arm_add_l	arm_rot_l	elbow_flex_l	pro_sup_l	wrist_flex_l	wrist_dev_l
      0.40000000	     -4.48892861	      1.11711393	      1.73803817	     -1.40370564	      0.92966161	      0.22273686	     33.06196403	     -1.41393236	    -19.93404347	     12.72385909	     -1.53459803	      0.22207323	      2.44223673	      3.64984678	     -9.39545112	     -7.59558738	      4.95156327	     -6.91137074	     17.27243708	     -1.70473708	      0.30146090	     19.00878138	      0.48597189	     -9.39545112	     -6.06970562	     -0.23893024	     -2.35277797	     -6.83799943	     -7.28694057	     -8.26820432	     26.53041651	     90.00000001	      0.00000000	      0.00000000	     15.97136494	    -11.72150759	      7.77896757	     47.66632260	     90.00000001	      0.00000000	      0.00000000
      0.41000000	     -4.38664442	      0.73068545	      1.71789545	     -1.38815134	      0.92879572	      0.22324487	     32.99726786	     -0.75784952	    -20.29199292	     13.81233905	     -1.99246958	      0.24107079	      1.98370746	      3.32642476	     -9.37437070	     -8.13759216	      4.31204125	     -6.73518076	     18.40740795	     -1.63626732	      0.32126988	     18.38089955	      0.32208057	     -9.37437070	     -6.07678353	      0.34685828	     -2.36436856	     -6.74199851	     -7.34414369	     -8.34382272	     26.35086147	     90.00000001	      0.00000000	      0.00000000	     15.88762966	    -11.52721013	      7.49203931	     47.61602704	     90.00000001	      0.00000000	      0.00000000
      0.42000000	     -4.34462765	      0.25458106	      1.68274547	     -1.37248225	      0.92825349	      0.22383435	     33.01283003	      0.00177407	    -20.42717717	     15.16570211	     -2.56087716	      0.26469144	      1.14857570	      3.03287379	     -9.33876283	     -8.41960524	      3.56685102	     -6.63570517	     19.88051560	     -1.61981798	      0.34698045	     17.47256081	      0.01519401	     -9.33876283	     -6.00649049	      1.05668741	     -2.41534094	     -6.50915826	     -7.40690748	     -8.53868769	     26.03979030	     90.00000001	      0.00000000	      0.00000000	     15.71920210	    -11.21346913	      6.76446480	     47.35979646	     90.00000001	      0.00000000	      0.00000000
      0.43000000	     -4.18399906	     -0.21072605	      1.59286214	     -1.35662314	      0.92826990	      0.22449267	     32.86506501	      0.79564093	    -19.91010649	     16.66420107	     -3.07812170	      0.29084518	      0.47847822	      2.84472108	     -9.32172737	     -8.74170159	      2.79065406	     -6.39845462	     21.49825727	     -1.45144662	      0.37521537	     16.38754281	     -0.18798246	     -9.32172737	     -6.08179616	      1.75169868	     -2.35587062	     -6.38524586	     -7.49169885	     -8.66933246	     25.87089098	     90.00000001	      0.00000000	      0.00000000	     15.48709921	    -10.92606030	      6.35689443	     47.12002010	     90.00000001	      0.00000000	      0.00000000
      0.44000000	     -4.09276413	     -0.85200949	      1.50842654	     -1.34069833	      0.92865052	      0.22531013	     32.78105907	      1.77278865	    -19.36597183	     18.19630888	     -3.62263388	      0.31758550	     -0.49024058	      2.24500850	     -9.29657376	     -8.64570337	      1.79564506	     -6.57486621	     23.67128560	     -1.45814284	      0.41314187	     14.57203517	     -0.82648381	     -9.29657376	     -6.06691072	      2.64107347	     -2.29160505	     -6.21184302	     -7.56917742	     -8.90437586	     25.61028410	     90.00000001	      0.00000000	      0.00000000	     15.18305953	    -10.49357845	      5.56975368	     46.64744486	     90.00000001	      0.00000000	      0.00000000
      0.45000000	     -3.92716628	     -1.45561547	      1.37931812	     -1.32470535	      0.92954074	      0.22620742	     32.55423039	      2.71964806	    -18.26916320	     19.75558342	     -3.95440492	      0.34479998	     -1.17829840	      1.49417906	     -9.27487411	     -8.47737219	      0.79675631	     -6.55704305	     26.06815593	     -1.28966754	      0.45497515	     12.50772880	     -1.42619574	     -9.27487411	     -6.15319504	      3.48824389	     -2.17241539	     -6.06616396	     -7.60432849	     -9.13244399	     25.40524124	     90.00000001	      0.00000000	      0.00000000	     14.83375284	    -10.09918761	      4.82025551	     46.13640383	     90.00000001	      0.00000000	      0.00000000
      0.46000000	     -3.63136942	     -2.01532330	      1.21557322	     -1.30872769	      0.93093362	      0.22716818	     32.16534354	      3.61387056	    -16.98652524	     21.37948436	     -4.15403501	      0.37314239	     -1.56694778	      0.80167795	     -9.26110820	     -8.30018136	     -0.17360622	     -6.31619059	     28.62617606	     -0.97957957	      0.49962102	     10.37443942	     -1.87329483	     -9.26110820	     -6.42835033	      4.27777402	     -2.00801855	     -5.83598201	     -7.67709910	     -9.29504588	     25.32615336	     90.00000001	      0.00000000	      0.00000000	     14.47080661	     -9.81469963	      4.29916029	     45.68328164	     90.00000001	      0.00000000	      0.00000000
      0.47000000	     -3.83324042	     -2.66414379	      0.99736851	     -1.29321086	      0.93248591	      0.22822423	     31.70168718	      4.90276907	    -12.51219389	     22.09870822	     -3.27896448	      0.38569522	     -3.44697954	     -6.85914850	     -9.13414950	     -7.23250669	     -1.17269759	     -5.93599892	     31.61876052	     -0.68681051	      0.55185148	      6.20848530	     -5.19910132	     -9.13414950	     -6.14188110	      5.16110404	     -1.87452601	     -5.42473930	     -7.59439448	    -10.62541662	     24.75717674	     90.00000001	      0.00000000	      0.00000000	     14.24937297	     -8.45482555	      0.88768789	     44.14933795	     90.00000001	      0.00000000	      0.00000000
      0.48000000	     -3.62987948	     -3.27557972	      0.85211728	     -1.27748892	      0.93445540	      0.22945420	     31.04156703	      5.95008805	    -10.42198600	     23.17032878	     -3.01153305	      0.40439853	     -3.92628977	     -9.87226059	     -9.00982591	     -6.37843983	     -2.28537172	     -5.91547291	     34.84377536	     -0.43453918	      0.60813860	      2.65034805	     -6.64193496	     -9.00982591	     -6.32958233	      5.93612972	     -1.64771511	     -5.24402708	     -7.55374356	    -11.19289579	     24.69245230	     90.00000001	      0.00000000	      0.00000000	     13.80836101	     -8.17384270	      0.44713181	     43.56736051	     90.00000001	      0.00000000	      0.00000000
      0.49000000	     -3.33095163	     -3.90607413	      0.82974449	     -1.26173716	      0.93658558	      0.23068864	     30.30443163	      6.91174029	     -9.73794407	     24.21311185	     -3.11878915	      0.42259852	     -3.31574726	    -10.55172295	     -8.99060714	     -5.39385411	     -3.48543388	     -6.07659288	     38.21672022	     -0.35979089	      0.66700760	     -0.63343130	     -7.15908195	     -8.99060714	     -6.60115560	      6.70286673	     -1.52550921	     -5.09898175	     -7.56930226	    -11.25807664	     24.72629170	     90.00000001	      0.00000000	      0.00000000	     13.27438897	     -7.99956677	      0.30217152	     43.09743284	     90.00000001	      0.00000000	      0.00000000
      0.50000000	     -3.26075750	     -4.27679334	      0.69548924	     -1.24649518	      0.93880602	      0.23186890	     29.53023239	      7.66185912	     -7.98515138	     24.83206204	     -2.73851403	      0.43340124	     -3.65891419	    -13.30009650	     -8.88398880	     -4.05965626	     -4.28486152	     -5.55478018	     41.50654889	      0.04737707	      0.72442594	     -4.66501955	    -10.19517137	     -8.88398880	     -6.66219750	      7.14955075	     -1.25429937	     -4.92737341	     -7.48959907	    -11.63244230	     24.72274476	     90.00000001	      0.00000000	      0.00000000	     12.96187830	     -7.52686258	     -0.66592483	     42.07577211	     90.00000001	      0.00000000	      0.00000000
      0.51000000	     -3.15191539	     -4.63525992	      0.67308946	     -1.23138956	      0.94103785	      0.23301091	     28.68493634	      8.32359443	     -7.52173604	     25.28709277	     -2.80293143	      0.44134303	     -3.08123104	    -13.96172173	     -8.81174026	     -2.54390099	     -5.09767041	     -5.43948900	     44.85502222	      0.07844011	      0.78286782	     -7.67729121	    -11.83333769	     -8.81174026	     -6.75743300	      7.54807063	     -1.07625555	     -4.77961858	     -7.44200483	    -11.78526447	     24.81934432	     90.00000001	      0.00000000	      0.00000000	     12.52146400	     -7.32487128	     -1.01951561	     41.35767815	     90.00000001	      0.00000000	      0.00000000
      0.52000000	     -2.99035431	     -5.01597246	      0.74247739	     -1.21643921	      0.94332941	      0.23405836	     27.63551338	      8.93547727	     -7.52560351	     25.43079583	     -2.93595132	      0.44385112	     -2.21819978	    -14.09394303	     -8.79644435	     -0.94245997	     -5.94931912	     -5.52029667	     48.13526301	     -0.12289599	      0.84011883	     -9.39339401	    -12.69630837	     -8.79644435	     -6.90665350	      7.95900773	     -0.94525753	     -4.61651408	     -7.40511613	    -11.80191356	     24.92814364	     90.00000001	      0.00000000	      0.00000000	     11.96789940	     -7.20927972	     -1.09727769	     40.86228557	     90.00000001	      0.00000000	      0.00000000
      0.53000000	     -3.07784060	     -5.09020611	      0.76255185	     -1.20185689	      0.94551619	      0.23483390	     26.80191849	      9.17163845	     -7.79355909	     25.46786928	     -3.13935038	      0.44449817	     -1.45110577	    -13.75546125	     -8.73936788	      0.99215993	     -6.31814189	     -5.40490729	     51.15743114	     -0.31652444	      0.89286561	    -11.31667875	    -15.33487319	     -8.73936788	     -6.78447285	      8.01705863	     -0.73064036	     -4.52730409	     -7.34348208	    -11.86608466	     25.13650176	     90.00000001	      0.00000000	      0.00000000	     11.64688380	     -6.94484792	     -1.47992865	     39.84989120	     90.00000001	      0.00000000	      0.00000000
